<svg version="1" xmlns="http://www.w3.org/2000/svg" width="1066.667" height="1066.667" viewBox="0 0 800.000000 800.000000"><path d="M0 400v400h800V0H0v400zm457-261.8c35.8 7.6 59.1 18.7 79.5 38 26.9 25.5 40.9 60.8 39.2 99.3-1.1 24.8-8.1 45.8-22 66.4-6.1 9.1-18.9 22.6-27.7 29.2-8.7 6.5-24.6 14.4-34.7 17.2-11.8 3.2-11.3 4.6 3 7.5 29.9 6.1 52 17.4 71.3 36.7 20 19.9 31.4 42.5 36.1 72 2.1 13.7 1.3 45-1.5 58.3-9.7 44.5-34.6 76.6-74.7 96.3-20 9.8-40 15.5-68.5 19.6-11.4 1.6-21.8 1.8-114.5 1.8h-102l-6-2.8c-6.8-3.2-9.7-5.6-13.1-10.8-5.8-9.2-5.4 8.1-5.2-261l.3-246.4 3.3-6.7c3.7-7.6 8.3-11.9 15.7-14.8 4.9-1.9 7.9-1.9 109.5-1.6 90.4.2 105.5.5 112 1.8z"/><path d="M283 283v88h53.9c29.6 0 59.6-.5 66.7-1 38.9-3.1 65.1-13.3 83-32.3 8.4-8.9 12.7-16 16.5-26.9 4.1-11.9 5.2-21.2 4.6-36.3-1.5-35.3-18.4-59-50.5-71.1-20.4-7.6-30.4-8.4-108.7-8.4H283v88zM283 525v96h71c42.1 0 75-.4 80.8-1 45.2-4.9 74.5-21 89.2-49 6.9-13.4 9.2-23.1 9.7-42 .6-18.3-.8-28.9-5.3-40.7-10.5-28.1-36.5-47.1-74.7-54.8-20.7-4.1-30.5-4.5-102.4-4.5H283v96z"/></svg>